<svg xmlns="http://www.w3.org/2000/svg" viewBox="0 0 250 250"><defs><style>.cls-1{fill:#48c43c;}.cls-2{fill:#192935;}</style></defs><g id="Layer_2" data-name="Layer 2"><g id="Layer_1-2" data-name="Layer 1"><path class="cls-1" d="M149.6,170c-13,9.92-27.88,16.89-42.33,24.4-6.45,2.9-24-19.69-28.8-24.82-2.39-3.11-3.91-3-6.9-.78C52.45,183,33.08,196.82,14,211.07,4,218.94,1.84,192.33.08,186.52c-.39-2.19.7-3.56,2-5C19.33,162.69,36.6,143.89,53.74,125c2.82-3.13,4.13-3,5.9.87,4.54,10,10.22,19.37,16.09,28.65,2.19,3.46,3.68,3.27,6.63,1,10.39-8.13,21.11-15.84,31.45-24,3.46-2.73,5-2.1,7.47,1.23C130.42,145.36,140.72,157.08,149.6,170Z"/><path class="cls-1" d="M250,65.69c-16.06,21.56-36.68,40.47-54.2,61.2-2.42,2.69-3.44,2.26-4.89-.79a189.43,189.43,0,0,0-15.42-27.3c-4.45-6.37-2.93-6.49-9.73-1.36-10.13,7.65-20.3,15.25-30.27,23.1-2.7,2.12-4,1.84-6-.81-35.3-49-41.59-31.46,12.78-62.57,4.4-4.49,25.66,20.42,29.44,24.65,2.16,2.83,3.58,3,6.47.89C197.38,68.33,216.82,54.23,236,39.83,245.78,32.12,248.39,60,250,65.69Z"/><path class="cls-2" d="M184.74,250c-21.29-15.45-39.47-36.35-59.79-53.6-2.91-2.66-2.7-4.15.84-5.84,9.42-4.52,18.32-10,27.25-15.41,3.76-2.27,5.09-3.86,1.77-8-36.39-49.05-32.07-26.06,11.72-64.64,2.72-2.16,4-1.93,5.8,1q11.41,18.93,21.28,38.72c4.49,6.92-19.35,24.35-24.39,29.8-2.92,2.39-2.57,4-.59,6.72,14,19.06,27.75,38.3,41.83,57.3C218.28,245.82,190.14,248.63,184.74,250Z"/><path class="cls-2" d="M63.83,0c22.26,14.81,40.4,37.15,61.33,54.51,2.54,2.33,2.47,3.39-.75,4.94-5,3.57-38.79,16.19-29.92,23.13,8.15,10.37,16,21,24.12,31.37,2.4,3,2.08,4.58-1,6.88-11.54,8.61-22.88,17.48-34.21,26.38-2.47,1.94-4,2.47-6-.72-7.92-12.85-14.95-26.18-21.87-39.58C52.68,101.1,75.43,83,80.29,78.5c2.73-2.09,3.25-3.5,1-6.5C67.17,52.84,53.22,33.52,39.21,14.25,29.51,4.24,58.55,1.22,63.83,0Z"/></g></g></svg>